<mxfile host="app.diagrams.net" modified="2022-04-03T10:51:20.896Z" agent="5.0 (Windows NT 10.0; Win64; x64) AppleWebKit/537.36 (KHTML, like Gecko) Chrome/100.0.4896.60 Safari/537.36" etag="TCJgMiTfEdZcnasyj69w" version="17.1.3" type="github">
  <diagram name="Page-1" id="e7e014a7-5840-1c2e-5031-d8a46d1fe8dd">
    <mxGraphModel dx="3056" dy="1773" grid="1" gridSize="10" guides="1" tooltips="1" connect="1" arrows="1" fold="1" page="1" pageScale="1" pageWidth="1169" pageHeight="826" background="none" math="0" shadow="0">
      <root>
        <mxCell id="0" />
        <mxCell id="1" parent="0" />
        <mxCell id="Ozdj_CKaKpZc2hMSJWOS-74" value="Меню Информация" style="swimlane;fontSize=20;" vertex="1" parent="1">
          <mxGeometry x="720" y="-240" width="870" height="470" as="geometry" />
        </mxCell>
        <mxCell id="Ozdj_CKaKpZc2hMSJWOS-84" value="&lt;div&gt;Как устроен процесс? / How does the process work? ;&amp;nbsp;&lt;/div&gt;&lt;div&gt;Как работать в Системе? / How to work in the System? ;&lt;/div&gt;&lt;div&gt;Термины и определения / Terms and Definitions;&lt;/div&gt;&lt;div&gt;Презентация по «БД по аудита» / Presentation of the &quot;Audit Database&quot;;&lt;/div&gt;&lt;div&gt;Что такое Требования?&amp;nbsp; / What are the Requirements? ;&lt;/div&gt;&lt;div&gt;Что означает Классификация НС?&amp;nbsp; / What does the classification of noncomformites mean? ;&lt;/div&gt;&lt;div&gt;Что означает Коррекция? / What does Correction mean? ;&lt;/div&gt;&lt;div&gt;Что означает Группирование NCR? / What does NCR Grouping mean? ;&lt;/div&gt;&lt;div&gt;Что означает КД? / What does the Corrective Action mean? ;&lt;/div&gt;&lt;div&gt;Что означает Анализ коренных причин? / What is the root cause analysis? ;&lt;/div&gt;&lt;div&gt;Что означает Документальное подтверждение выполнения КД или Коррекции?&amp;nbsp; / What does it mean Documentary evidence of implementation CA or correction?.&lt;/div&gt;&lt;div&gt;&lt;br&gt;&lt;/div&gt;" style="shape=document;whiteSpace=wrap;html=1;boundedLbl=1;fontSize=19;" vertex="1" parent="Ozdj_CKaKpZc2hMSJWOS-74">
          <mxGeometry y="30" width="870" height="440" as="geometry" />
        </mxCell>
        <mxCell id="Ozdj_CKaKpZc2hMSJWOS-79" value="Создание" style="rounded=0;whiteSpace=wrap;html=1;fontSize=20;" vertex="1" parent="Ozdj_CKaKpZc2hMSJWOS-74">
          <mxGeometry x="310" y="395" width="120" height="60" as="geometry" />
        </mxCell>
        <mxCell id="Ozdj_CKaKpZc2hMSJWOS-80" value="Редактирование" style="rounded=0;whiteSpace=wrap;html=1;fontSize=20;" vertex="1" parent="Ozdj_CKaKpZc2hMSJWOS-74">
          <mxGeometry x="460" y="395" width="180" height="60" as="geometry" />
        </mxCell>
        <mxCell id="Ozdj_CKaKpZc2hMSJWOS-81" value="Удаление" style="rounded=0;whiteSpace=wrap;html=1;fontSize=20;" vertex="1" parent="Ozdj_CKaKpZc2hMSJWOS-74">
          <mxGeometry x="660" y="395" width="180" height="60" as="geometry" />
        </mxCell>
        <mxCell id="Ozdj_CKaKpZc2hMSJWOS-55" value="" style="whiteSpace=wrap;html=1;aspect=fixed;" vertex="1" parent="1">
          <mxGeometry x="-50" y="10" width="350" height="350" as="geometry" />
        </mxCell>
        <mxCell id="Ozdj_CKaKpZc2hMSJWOS-50" value="" style="edgeStyle=orthogonalEdgeStyle;rounded=0;orthogonalLoop=1;jettySize=auto;html=1;" edge="1" parent="1" source="Ozdj_CKaKpZc2hMSJWOS-41" target="Ozdj_CKaKpZc2hMSJWOS-49">
          <mxGeometry relative="1" as="geometry" />
        </mxCell>
        <mxCell id="Ozdj_CKaKpZc2hMSJWOS-41" value="Админ" style="shape=umlActor;verticalLabelPosition=bottom;verticalAlign=top;html=1;outlineConnect=0;" vertex="1" parent="1">
          <mxGeometry x="40" y="40" width="30" height="60" as="geometry" />
        </mxCell>
        <mxCell id="Ozdj_CKaKpZc2hMSJWOS-51" style="edgeStyle=orthogonalEdgeStyle;rounded=0;orthogonalLoop=1;jettySize=auto;html=1;entryX=0.5;entryY=1;entryDx=0;entryDy=0;" edge="1" parent="1" source="Ozdj_CKaKpZc2hMSJWOS-42" target="Ozdj_CKaKpZc2hMSJWOS-49">
          <mxGeometry relative="1" as="geometry" />
        </mxCell>
        <mxCell id="Ozdj_CKaKpZc2hMSJWOS-42" value="Редактор" style="shape=umlActor;verticalLabelPosition=bottom;verticalAlign=top;html=1;outlineConnect=0;" vertex="1" parent="1">
          <mxGeometry x="40" y="140" width="30" height="60" as="geometry" />
        </mxCell>
        <mxCell id="Ozdj_CKaKpZc2hMSJWOS-54" style="edgeStyle=orthogonalEdgeStyle;rounded=0;orthogonalLoop=1;jettySize=auto;html=1;" edge="1" parent="1" source="Ozdj_CKaKpZc2hMSJWOS-43">
          <mxGeometry relative="1" as="geometry">
            <mxPoint x="100" y="290" as="targetPoint" />
          </mxGeometry>
        </mxCell>
        <mxCell id="Ozdj_CKaKpZc2hMSJWOS-43" value="Читатель" style="shape=umlActor;verticalLabelPosition=bottom;verticalAlign=top;html=1;outlineConnect=0;" vertex="1" parent="1">
          <mxGeometry x="40" y="260" width="30" height="60" as="geometry" />
        </mxCell>
        <mxCell id="Ozdj_CKaKpZc2hMSJWOS-49" value="Создание&lt;br&gt;Редактирование&lt;br&gt;Удаление&lt;br&gt;Просмотр" style="whiteSpace=wrap;html=1;verticalAlign=top;fillColor=rgb(255, 255, 255);strokeColor=rgb(0, 0, 0);fontColor=rgb(0, 0, 0);" vertex="1" parent="1">
          <mxGeometry x="105" y="20" width="120" height="80" as="geometry" />
        </mxCell>
        <mxCell id="Ozdj_CKaKpZc2hMSJWOS-52" value="Просмотр" style="whiteSpace=wrap;html=1;verticalAlign=top;fillColor=rgb(255, 255, 255);strokeColor=rgb(0, 0, 0);fontColor=rgb(0, 0, 0);" vertex="1" parent="1">
          <mxGeometry x="105" y="275" width="120" height="30" as="geometry" />
        </mxCell>
        <mxCell id="Ozdj_CKaKpZc2hMSJWOS-56" value="Роли" style="text;html=1;align=center;verticalAlign=middle;resizable=0;points=[];autosize=1;strokeColor=none;fillColor=none;fontSize=20;" vertex="1" parent="1">
          <mxGeometry x="90" y="-35" width="60" height="30" as="geometry" />
        </mxCell>
        <mxCell id="Ozdj_CKaKpZc2hMSJWOS-60" value="" style="edgeStyle=orthogonalEdgeStyle;rounded=0;orthogonalLoop=1;jettySize=auto;html=1;fontSize=20;" edge="1" parent="1" source="Ozdj_CKaKpZc2hMSJWOS-57" target="Ozdj_CKaKpZc2hMSJWOS-59">
          <mxGeometry relative="1" as="geometry" />
        </mxCell>
        <mxCell id="Ozdj_CKaKpZc2hMSJWOS-57" value="Реестр Аудитов" style="html=1;whiteSpace=wrap;container=1;recursiveResize=0;collapsible=0;fontSize=20;" vertex="1" parent="1">
          <mxGeometry x="350" y="10" width="160" height="70" as="geometry" />
        </mxCell>
        <mxCell id="Ozdj_CKaKpZc2hMSJWOS-76" style="edgeStyle=orthogonalEdgeStyle;rounded=0;orthogonalLoop=1;jettySize=auto;html=1;entryX=0;entryY=0;entryDx=0;entryDy=0;fontSize=20;" edge="1" parent="1" source="Ozdj_CKaKpZc2hMSJWOS-59" target="Ozdj_CKaKpZc2hMSJWOS-74">
          <mxGeometry relative="1" as="geometry" />
        </mxCell>
        <mxCell id="Ozdj_CKaKpZc2hMSJWOS-59" value="Информация" style="whiteSpace=wrap;html=1;fontSize=20;fillColor=rgb(255, 255, 255);strokeColor=rgb(0, 0, 0);fontColor=rgb(0, 0, 0);" vertex="1" parent="1">
          <mxGeometry x="370" y="165" width="240" height="45" as="geometry" />
        </mxCell>
        <mxCell id="Ozdj_CKaKpZc2hMSJWOS-61" value="&lt;p class=&quot;2&quot; style=&quot;margin-top: 0cm&quot;&gt;&amp;nbsp;&lt;a href=&quot;http://www.rugost.com/index.php?option=com_content&amp;amp;task=view&amp;amp;id=107&amp;amp;Itemid=62#2_1&quot;&gt;&lt;span style=&quot;color: red&quot;&gt;Назначение &lt;/span&gt;&lt;span style=&quot;color: red&quot;&gt;Раздела по аудитам&lt;/span&gt;&lt;/a&gt;&lt;a name=&quot;_Toc267580743&quot;&gt;&lt;/a&gt;&lt;a name=&quot;_Toc269888542&quot;&gt;&lt;/a&gt;&lt;a name=&quot;_Toc374097100&quot;&gt;&lt;/a&gt;&lt;a name=&quot;_Toc506370060&quot;&gt;&lt;/a&gt;&lt;/p&gt;" style="text;html=1;align=center;verticalAlign=middle;resizable=0;points=[];autosize=1;strokeColor=none;fillColor=none;fontSize=20;" vertex="1" parent="1">
          <mxGeometry x="325" y="-40" width="330" height="50" as="geometry" />
        </mxCell>
        <mxCell id="Ozdj_CKaKpZc2hMSJWOS-98" style="edgeStyle=orthogonalEdgeStyle;rounded=0;orthogonalLoop=1;jettySize=auto;html=1;fontSize=19;" edge="1" parent="1" source="Ozdj_CKaKpZc2hMSJWOS-62" target="Ozdj_CKaKpZc2hMSJWOS-99">
          <mxGeometry relative="1" as="geometry">
            <mxPoint x="710" y="720" as="targetPoint" />
            <Array as="points">
              <mxPoint x="660" y="252" />
            </Array>
          </mxGeometry>
        </mxCell>
        <mxCell id="Ozdj_CKaKpZc2hMSJWOS-62" value="Документы" style="whiteSpace=wrap;html=1;fontSize=20;fillColor=rgb(255, 255, 255);strokeColor=rgb(0, 0, 0);fontColor=rgb(0, 0, 0);" vertex="1" parent="1">
          <mxGeometry x="370" y="230" width="240" height="45" as="geometry" />
        </mxCell>
        <mxCell id="Ozdj_CKaKpZc2hMSJWOS-63" value="Реестр Аудитов" style="whiteSpace=wrap;html=1;fontSize=20;fillColor=rgb(255, 255, 255);strokeColor=rgb(0, 0, 0);fontColor=rgb(0, 0, 0);" vertex="1" parent="1">
          <mxGeometry x="370" y="300" width="240" height="45" as="geometry" />
        </mxCell>
        <mxCell id="Ozdj_CKaKpZc2hMSJWOS-64" value="Реестр NRC" style="whiteSpace=wrap;html=1;fontSize=20;fillColor=rgb(255, 255, 255);strokeColor=rgb(0, 0, 0);fontColor=rgb(0, 0, 0);" vertex="1" parent="1">
          <mxGeometry x="370" y="368" width="240" height="45" as="geometry" />
        </mxCell>
        <mxCell id="Ozdj_CKaKpZc2hMSJWOS-65" value="Реестр комментариев(COM)" style="whiteSpace=wrap;html=1;fontSize=20;fillColor=rgb(255, 255, 255);strokeColor=rgb(0, 0, 0);fontColor=rgb(0, 0, 0);" vertex="1" parent="1">
          <mxGeometry x="369" y="427" width="240" height="53" as="geometry" />
        </mxCell>
        <mxCell id="Ozdj_CKaKpZc2hMSJWOS-66" value="Контроль Исполнения" style="whiteSpace=wrap;html=1;fontSize=20;fillColor=rgb(255, 255, 255);strokeColor=rgb(0, 0, 0);fontColor=rgb(0, 0, 0);" vertex="1" parent="1">
          <mxGeometry x="370" y="500" width="240" height="53" as="geometry" />
        </mxCell>
        <mxCell id="Ozdj_CKaKpZc2hMSJWOS-67" value="Реестр поручений" style="whiteSpace=wrap;html=1;fontSize=20;fillColor=rgb(255, 255, 255);strokeColor=rgb(0, 0, 0);fontColor=rgb(0, 0, 0);" vertex="1" parent="1">
          <mxGeometry x="367" y="577" width="240" height="53" as="geometry" />
        </mxCell>
        <mxCell id="Ozdj_CKaKpZc2hMSJWOS-68" value="Отчеты" style="whiteSpace=wrap;html=1;fontSize=20;fillColor=rgb(255, 255, 255);strokeColor=rgb(0, 0, 0);fontColor=rgb(0, 0, 0);" vertex="1" parent="1">
          <mxGeometry x="367" y="653" width="240" height="53" as="geometry" />
        </mxCell>
        <mxCell id="Ozdj_CKaKpZc2hMSJWOS-86" value="" style="edgeStyle=orthogonalEdgeStyle;rounded=0;orthogonalLoop=1;jettySize=auto;html=1;fontSize=19;" edge="1" parent="1" source="Ozdj_CKaKpZc2hMSJWOS-85" target="Ozdj_CKaKpZc2hMSJWOS-79">
          <mxGeometry relative="1" as="geometry" />
        </mxCell>
        <mxCell id="Ozdj_CKaKpZc2hMSJWOS-87" style="edgeStyle=orthogonalEdgeStyle;rounded=0;orthogonalLoop=1;jettySize=auto;html=1;fontSize=19;" edge="1" parent="1" source="Ozdj_CKaKpZc2hMSJWOS-85" target="Ozdj_CKaKpZc2hMSJWOS-80">
          <mxGeometry relative="1" as="geometry" />
        </mxCell>
        <mxCell id="Ozdj_CKaKpZc2hMSJWOS-88" style="edgeStyle=orthogonalEdgeStyle;rounded=0;orthogonalLoop=1;jettySize=auto;html=1;fontSize=19;" edge="1" parent="1" source="Ozdj_CKaKpZc2hMSJWOS-85">
          <mxGeometry relative="1" as="geometry">
            <mxPoint x="1470" y="230" as="targetPoint" />
          </mxGeometry>
        </mxCell>
        <mxCell id="Ozdj_CKaKpZc2hMSJWOS-94" value="" style="edgeStyle=orthogonalEdgeStyle;rounded=0;orthogonalLoop=1;jettySize=auto;html=1;fontSize=19;" edge="1" parent="1" source="Ozdj_CKaKpZc2hMSJWOS-85" target="Ozdj_CKaKpZc2hMSJWOS-93">
          <mxGeometry relative="1" as="geometry" />
        </mxCell>
        <mxCell id="Ozdj_CKaKpZc2hMSJWOS-97" value="" style="edgeStyle=orthogonalEdgeStyle;rounded=0;orthogonalLoop=1;jettySize=auto;html=1;fontSize=19;" edge="1" parent="1" source="Ozdj_CKaKpZc2hMSJWOS-85" target="Ozdj_CKaKpZc2hMSJWOS-96">
          <mxGeometry relative="1" as="geometry" />
        </mxCell>
        <mxCell id="Ozdj_CKaKpZc2hMSJWOS-85" value="Админ или Редактор" style="rhombus;whiteSpace=wrap;html=1;fontSize=19;" vertex="1" parent="1">
          <mxGeometry x="980" y="283" width="150" height="127" as="geometry" />
        </mxCell>
        <mxCell id="Ozdj_CKaKpZc2hMSJWOS-89" value="Позволить Создать, редактировать, удалять карточки" style="whiteSpace=wrap;html=1;fontSize=19;fillColor=rgb(255, 255, 255);strokeColor=rgb(0, 0, 0);fontColor=rgb(0, 0, 0);" vertex="1" parent="1">
          <mxGeometry x="1230" y="456.5" width="205" height="96.5" as="geometry" />
        </mxCell>
        <mxCell id="Ozdj_CKaKpZc2hMSJWOS-95" value="" style="edgeStyle=orthogonalEdgeStyle;rounded=0;orthogonalLoop=1;jettySize=auto;html=1;fontSize=19;" edge="1" parent="1" source="Ozdj_CKaKpZc2hMSJWOS-93" target="Ozdj_CKaKpZc2hMSJWOS-89">
          <mxGeometry relative="1" as="geometry" />
        </mxCell>
        <mxCell id="Ozdj_CKaKpZc2hMSJWOS-93" value="Сделать видимыми кнопки" style="ellipse;shape=cloud;whiteSpace=wrap;html=1;fontSize=19;fillColor=rgb(255, 255, 255);strokeColor=rgb(0, 0, 0);fontColor=rgb(0, 0, 0);" vertex="1" parent="1">
          <mxGeometry x="955" y="450" width="200" height="140" as="geometry" />
        </mxCell>
        <mxCell id="Ozdj_CKaKpZc2hMSJWOS-185" style="edgeStyle=orthogonalEdgeStyle;rounded=0;orthogonalLoop=1;jettySize=auto;html=1;fontSize=19;" edge="1" parent="1" source="Ozdj_CKaKpZc2hMSJWOS-96">
          <mxGeometry relative="1" as="geometry">
            <mxPoint x="807.5" y="230" as="targetPoint" />
          </mxGeometry>
        </mxCell>
        <mxCell id="Ozdj_CKaKpZc2hMSJWOS-96" value="Отобразить содержимое" style="ellipse;whiteSpace=wrap;html=1;fontSize=19;fillColor=rgb(255, 255, 255);strokeColor=rgb(0, 0, 0);fontColor=rgb(0, 0, 0);" vertex="1" parent="1">
          <mxGeometry x="730" y="290" width="155" height="86.5" as="geometry" />
        </mxCell>
        <mxCell id="Ozdj_CKaKpZc2hMSJWOS-99" value="Документы" style="swimlane;fontSize=19;" vertex="1" parent="1">
          <mxGeometry x="730" y="750" width="890" height="390" as="geometry" />
        </mxCell>
        <mxCell id="Ozdj_CKaKpZc2hMSJWOS-112" value="Создание" style="rounded=0;whiteSpace=wrap;html=1;fontSize=20;" vertex="1" parent="Ozdj_CKaKpZc2hMSJWOS-99">
          <mxGeometry x="17.5" y="40" width="862.5" height="60" as="geometry" />
        </mxCell>
        <mxCell id="Ozdj_CKaKpZc2hMSJWOS-113" value="Создание" style="rounded=0;whiteSpace=wrap;html=1;fontSize=20;" vertex="1" parent="Ozdj_CKaKpZc2hMSJWOS-99">
          <mxGeometry x="13.75" y="110" width="862.5" height="60" as="geometry" />
        </mxCell>
        <mxCell id="Ozdj_CKaKpZc2hMSJWOS-114" value="Создание" style="rounded=0;whiteSpace=wrap;html=1;fontSize=20;" vertex="1" parent="Ozdj_CKaKpZc2hMSJWOS-99">
          <mxGeometry x="13.75" y="180" width="862.5" height="60" as="geometry" />
        </mxCell>
        <mxCell id="Ozdj_CKaKpZc2hMSJWOS-115" value="И другие карточки" style="rounded=0;whiteSpace=wrap;html=1;fontSize=20;" vertex="1" parent="Ozdj_CKaKpZc2hMSJWOS-99">
          <mxGeometry x="13.75" y="250" width="862.5" height="60" as="geometry" />
        </mxCell>
        <mxCell id="Ozdj_CKaKpZc2hMSJWOS-103" value="Удаление" style="rounded=0;whiteSpace=wrap;html=1;fontSize=20;" vertex="1" parent="Ozdj_CKaKpZc2hMSJWOS-99">
          <mxGeometry x="680" y="320" width="180" height="60" as="geometry" />
        </mxCell>
        <mxCell id="Ozdj_CKaKpZc2hMSJWOS-102" value="Редактирование" style="rounded=0;whiteSpace=wrap;html=1;fontSize=20;" vertex="1" parent="Ozdj_CKaKpZc2hMSJWOS-99">
          <mxGeometry x="480" y="320" width="180" height="60" as="geometry" />
        </mxCell>
        <mxCell id="Ozdj_CKaKpZc2hMSJWOS-101" value="Создание" style="rounded=0;whiteSpace=wrap;html=1;fontSize=20;" vertex="1" parent="Ozdj_CKaKpZc2hMSJWOS-99">
          <mxGeometry x="340" y="320" width="120" height="60" as="geometry" />
        </mxCell>
        <mxCell id="Ozdj_CKaKpZc2hMSJWOS-108" style="edgeStyle=orthogonalEdgeStyle;rounded=0;orthogonalLoop=1;jettySize=auto;html=1;fontSize=19;" edge="1" parent="1" source="Ozdj_CKaKpZc2hMSJWOS-104" target="Ozdj_CKaKpZc2hMSJWOS-101">
          <mxGeometry relative="1" as="geometry">
            <mxPoint x="1115" y="1220" as="targetPoint" />
          </mxGeometry>
        </mxCell>
        <mxCell id="Ozdj_CKaKpZc2hMSJWOS-109" value="" style="edgeStyle=orthogonalEdgeStyle;rounded=0;orthogonalLoop=1;jettySize=auto;html=1;fontSize=19;" edge="1" parent="1" source="Ozdj_CKaKpZc2hMSJWOS-104" target="Ozdj_CKaKpZc2hMSJWOS-107">
          <mxGeometry relative="1" as="geometry" />
        </mxCell>
        <mxCell id="Ozdj_CKaKpZc2hMSJWOS-110" value="" style="edgeStyle=orthogonalEdgeStyle;rounded=0;orthogonalLoop=1;jettySize=auto;html=1;fontSize=19;" edge="1" parent="1" source="Ozdj_CKaKpZc2hMSJWOS-104" target="Ozdj_CKaKpZc2hMSJWOS-106">
          <mxGeometry relative="1" as="geometry" />
        </mxCell>
        <mxCell id="Ozdj_CKaKpZc2hMSJWOS-104" value="Админ или Редактор" style="rhombus;whiteSpace=wrap;html=1;fontSize=19;" vertex="1" parent="1">
          <mxGeometry x="1040" y="1278" width="150" height="127" as="geometry" />
        </mxCell>
        <mxCell id="Ozdj_CKaKpZc2hMSJWOS-186" style="edgeStyle=orthogonalEdgeStyle;rounded=0;orthogonalLoop=1;jettySize=auto;html=1;fontSize=19;" edge="1" parent="1" source="Ozdj_CKaKpZc2hMSJWOS-105">
          <mxGeometry relative="1" as="geometry">
            <mxPoint x="2180" y="910" as="targetPoint" />
          </mxGeometry>
        </mxCell>
        <mxCell id="Ozdj_CKaKpZc2hMSJWOS-105" value="Позволить Создать, редактировать, удалять карточки" style="whiteSpace=wrap;html=1;fontSize=19;fillColor=rgb(255, 255, 255);strokeColor=rgb(0, 0, 0);fontColor=rgb(0, 0, 0);" vertex="1" parent="1">
          <mxGeometry x="1260" y="1239" width="205" height="96.5" as="geometry" />
        </mxCell>
        <mxCell id="Ozdj_CKaKpZc2hMSJWOS-111" value="" style="edgeStyle=orthogonalEdgeStyle;rounded=0;orthogonalLoop=1;jettySize=auto;html=1;fontSize=19;" edge="1" parent="1" source="Ozdj_CKaKpZc2hMSJWOS-106" target="Ozdj_CKaKpZc2hMSJWOS-105">
          <mxGeometry relative="1" as="geometry" />
        </mxCell>
        <mxCell id="Ozdj_CKaKpZc2hMSJWOS-106" value="Сделать видимыми кнопки" style="ellipse;shape=cloud;whiteSpace=wrap;html=1;fontSize=19;fillColor=rgb(255, 255, 255);strokeColor=rgb(0, 0, 0);fontColor=rgb(0, 0, 0);" vertex="1" parent="1">
          <mxGeometry x="1015" y="1445" width="200" height="140" as="geometry" />
        </mxCell>
        <mxCell id="Ozdj_CKaKpZc2hMSJWOS-184" style="edgeStyle=orthogonalEdgeStyle;rounded=0;orthogonalLoop=1;jettySize=auto;html=1;fontSize=19;" edge="1" parent="1" source="Ozdj_CKaKpZc2hMSJWOS-107">
          <mxGeometry relative="1" as="geometry">
            <mxPoint x="867.5" y="1090" as="targetPoint" />
          </mxGeometry>
        </mxCell>
        <mxCell id="Ozdj_CKaKpZc2hMSJWOS-107" value="Отобразить содержимое" style="ellipse;whiteSpace=wrap;html=1;fontSize=19;fillColor=rgb(255, 255, 255);strokeColor=rgb(0, 0, 0);fontColor=rgb(0, 0, 0);" vertex="1" parent="1">
          <mxGeometry x="790" y="1285" width="155" height="86.5" as="geometry" />
        </mxCell>
        <mxCell id="Ozdj_CKaKpZc2hMSJWOS-164" value="Table" style="shape=table;startSize=30;container=1;collapsible=0;childLayout=tableLayout;fontStyle=1;align=center;fontSize=19;rounded=0;shadow=0;" vertex="1" parent="1">
          <mxGeometry x="1790" y="740" width="697" height="136" as="geometry" />
        </mxCell>
        <mxCell id="Ozdj_CKaKpZc2hMSJWOS-165" value="" style="shape=tableRow;horizontal=0;startSize=0;swimlaneHead=0;swimlaneBody=0;top=0;left=0;bottom=0;right=0;collapsible=0;dropTarget=0;fillColor=none;points=[[0,0.5],[1,0.5]];portConstraint=eastwest;fontSize=19;" vertex="1" parent="Ozdj_CKaKpZc2hMSJWOS-164">
          <mxGeometry y="30" width="697" height="53" as="geometry" />
        </mxCell>
        <mxCell id="Ozdj_CKaKpZc2hMSJWOS-166" value="№" style="shape=partialRectangle;html=1;whiteSpace=wrap;connectable=0;fillColor=none;top=0;left=0;bottom=0;right=0;overflow=hidden;fontSize=19;" vertex="1" parent="Ozdj_CKaKpZc2hMSJWOS-165">
          <mxGeometry width="116" height="53" as="geometry">
            <mxRectangle width="116" height="53" as="alternateBounds" />
          </mxGeometry>
        </mxCell>
        <mxCell id="Ozdj_CKaKpZc2hMSJWOS-167" value="Год" style="shape=partialRectangle;html=1;whiteSpace=wrap;connectable=0;fillColor=none;top=0;left=0;bottom=0;right=0;overflow=hidden;fontSize=19;" vertex="1" parent="Ozdj_CKaKpZc2hMSJWOS-165">
          <mxGeometry x="116" width="116" height="53" as="geometry">
            <mxRectangle width="116" height="53" as="alternateBounds" />
          </mxGeometry>
        </mxCell>
        <mxCell id="Ozdj_CKaKpZc2hMSJWOS-168" value="&lt;span style=&quot;font-size: 12.0pt ; line-height: 150% ; font-family: &amp;#34;times new roman&amp;#34; , serif&quot;&gt;Название&amp;nbsp;&lt;/span&gt;" style="shape=partialRectangle;html=1;whiteSpace=wrap;connectable=0;fillColor=none;top=0;left=0;bottom=0;right=0;overflow=hidden;fontSize=19;" vertex="1" parent="Ozdj_CKaKpZc2hMSJWOS-165">
          <mxGeometry x="232" width="116" height="53" as="geometry">
            <mxRectangle width="116" height="53" as="alternateBounds" />
          </mxGeometry>
        </mxCell>
        <mxCell id="Ozdj_CKaKpZc2hMSJWOS-169" value="Версия Файла" style="shape=partialRectangle;html=1;whiteSpace=wrap;connectable=0;fillColor=none;top=0;left=0;bottom=0;right=0;overflow=hidden;fontSize=19;" vertex="1" parent="Ozdj_CKaKpZc2hMSJWOS-165">
          <mxGeometry x="348" width="117" height="53" as="geometry">
            <mxRectangle width="117" height="53" as="alternateBounds" />
          </mxGeometry>
        </mxCell>
        <mxCell id="Ozdj_CKaKpZc2hMSJWOS-170" value="Автор" style="shape=partialRectangle;html=1;whiteSpace=wrap;connectable=0;fillColor=none;top=0;left=0;bottom=0;right=0;overflow=hidden;fontSize=19;" vertex="1" parent="Ozdj_CKaKpZc2hMSJWOS-165">
          <mxGeometry x="465" width="116" height="53" as="geometry">
            <mxRectangle width="116" height="53" as="alternateBounds" />
          </mxGeometry>
        </mxCell>
        <mxCell id="Ozdj_CKaKpZc2hMSJWOS-171" value="Дата обновления" style="shape=partialRectangle;html=1;whiteSpace=wrap;connectable=0;fillColor=none;top=0;left=0;bottom=0;right=0;overflow=hidden;fontSize=19;" vertex="1" parent="Ozdj_CKaKpZc2hMSJWOS-165">
          <mxGeometry x="581" width="116" height="53" as="geometry">
            <mxRectangle width="116" height="53" as="alternateBounds" />
          </mxGeometry>
        </mxCell>
        <mxCell id="Ozdj_CKaKpZc2hMSJWOS-172" style="shape=tableRow;horizontal=0;startSize=0;swimlaneHead=0;swimlaneBody=0;top=0;left=0;bottom=0;right=0;collapsible=0;dropTarget=0;fillColor=none;points=[[0,0.5],[1,0.5]];portConstraint=eastwest;fontSize=19;" vertex="1" parent="Ozdj_CKaKpZc2hMSJWOS-164">
          <mxGeometry y="83" width="697" height="53" as="geometry" />
        </mxCell>
        <mxCell id="Ozdj_CKaKpZc2hMSJWOS-173" style="shape=partialRectangle;html=1;whiteSpace=wrap;connectable=0;fillColor=none;top=0;left=0;bottom=0;right=0;overflow=hidden;fontSize=19;" vertex="1" parent="Ozdj_CKaKpZc2hMSJWOS-172">
          <mxGeometry width="116" height="53" as="geometry">
            <mxRectangle width="116" height="53" as="alternateBounds" />
          </mxGeometry>
        </mxCell>
        <mxCell id="Ozdj_CKaKpZc2hMSJWOS-174" style="shape=partialRectangle;html=1;whiteSpace=wrap;connectable=0;fillColor=none;top=0;left=0;bottom=0;right=0;overflow=hidden;fontSize=19;" vertex="1" parent="Ozdj_CKaKpZc2hMSJWOS-172">
          <mxGeometry x="116" width="116" height="53" as="geometry">
            <mxRectangle width="116" height="53" as="alternateBounds" />
          </mxGeometry>
        </mxCell>
        <mxCell id="Ozdj_CKaKpZc2hMSJWOS-175" style="shape=partialRectangle;html=1;whiteSpace=wrap;connectable=0;fillColor=none;top=0;left=0;bottom=0;right=0;overflow=hidden;fontSize=19;" vertex="1" parent="Ozdj_CKaKpZc2hMSJWOS-172">
          <mxGeometry x="232" width="116" height="53" as="geometry">
            <mxRectangle width="116" height="53" as="alternateBounds" />
          </mxGeometry>
        </mxCell>
        <mxCell id="Ozdj_CKaKpZc2hMSJWOS-176" style="shape=partialRectangle;html=1;whiteSpace=wrap;connectable=0;fillColor=none;top=0;left=0;bottom=0;right=0;overflow=hidden;fontSize=19;" vertex="1" parent="Ozdj_CKaKpZc2hMSJWOS-172">
          <mxGeometry x="348" width="117" height="53" as="geometry">
            <mxRectangle width="117" height="53" as="alternateBounds" />
          </mxGeometry>
        </mxCell>
        <mxCell id="Ozdj_CKaKpZc2hMSJWOS-177" style="shape=partialRectangle;html=1;whiteSpace=wrap;connectable=0;fillColor=none;top=0;left=0;bottom=0;right=0;overflow=hidden;fontSize=19;" vertex="1" parent="Ozdj_CKaKpZc2hMSJWOS-172">
          <mxGeometry x="465" width="116" height="53" as="geometry">
            <mxRectangle width="116" height="53" as="alternateBounds" />
          </mxGeometry>
        </mxCell>
        <mxCell id="Ozdj_CKaKpZc2hMSJWOS-178" style="shape=partialRectangle;html=1;whiteSpace=wrap;connectable=0;fillColor=none;top=0;left=0;bottom=0;right=0;overflow=hidden;fontSize=19;" vertex="1" parent="Ozdj_CKaKpZc2hMSJWOS-172">
          <mxGeometry x="581" width="116" height="53" as="geometry">
            <mxRectangle width="116" height="53" as="alternateBounds" />
          </mxGeometry>
        </mxCell>
        <mxCell id="Ozdj_CKaKpZc2hMSJWOS-179" style="edgeStyle=orthogonalEdgeStyle;rounded=0;orthogonalLoop=1;jettySize=auto;html=1;fontSize=19;entryX=-0.014;entryY=-0.057;entryDx=0;entryDy=0;entryPerimeter=0;" edge="1" parent="1" source="Ozdj_CKaKpZc2hMSJWOS-112" target="Ozdj_CKaKpZc2hMSJWOS-172">
          <mxGeometry relative="1" as="geometry" />
        </mxCell>
        <mxCell id="Ozdj_CKaKpZc2hMSJWOS-181" style="edgeStyle=orthogonalEdgeStyle;rounded=0;orthogonalLoop=1;jettySize=auto;html=1;fontSize=19;" edge="1" parent="1" source="Ozdj_CKaKpZc2hMSJWOS-113">
          <mxGeometry relative="1" as="geometry">
            <mxPoint x="1700" y="830" as="targetPoint" />
          </mxGeometry>
        </mxCell>
        <mxCell id="Ozdj_CKaKpZc2hMSJWOS-182" style="edgeStyle=orthogonalEdgeStyle;rounded=0;orthogonalLoop=1;jettySize=auto;html=1;fontSize=19;" edge="1" parent="1" source="Ozdj_CKaKpZc2hMSJWOS-114">
          <mxGeometry relative="1" as="geometry">
            <mxPoint x="1730" y="830" as="targetPoint" />
          </mxGeometry>
        </mxCell>
        <mxCell id="Ozdj_CKaKpZc2hMSJWOS-183" style="edgeStyle=orthogonalEdgeStyle;rounded=0;orthogonalLoop=1;jettySize=auto;html=1;fontSize=19;" edge="1" parent="1" source="Ozdj_CKaKpZc2hMSJWOS-115">
          <mxGeometry relative="1" as="geometry">
            <mxPoint x="1760" y="830" as="targetPoint" />
          </mxGeometry>
        </mxCell>
      </root>
    </mxGraphModel>
  </diagram>
</mxfile>
